# xmcd
#
# Track frame offsets: 
#        150
#        17091
#        34461
#        49311
#
# Disc length: 901 seconds
#
# Revision: 0
# Processed by: cddbd v1.5.2PL0 Copyright (c) Steve Scherf et al.
# Submitted via: ExactAudioCopy v1.0b3
#
DISCID=31038304
DTITLE=Mary Spender - The Taking Shape EP
DYEAR=2017
DGENRE=Rock
TTITLE0=Taking Shape
TTITLE1=Long Island City
TTITLE2=Safe And Sound
TTITLE3=Primrose
EXTD=
EXTT0=
EXTT1=
EXTT2=
EXTT3=
PLAYORDER=
